# xmcd
#
# Track frame offsets:
#  150
#  15375
#  30415
#  45008
#  59893
#  75270
#  88085
#  99665
#  120332
#  130872
#  149402
#  159826
#
# Disc length: 2369 seconds
#
# Revision: 0
# Processed by: cddbd v1.5.1PL2 Copyright (c) Steve Scherf et al.
# Submitted via: Collectorz.com_Music_Collector 6.9
#
DISCID=86093f0c
DTITLE=Sunny Sweeney - Heartbreakers Hall Of Fame
DYEAR=2006
DGENRE=Country
TTITLE0=Refresh My Memory
TTITLE1=East Texas Pines
TTITLE2=Next Big Nothing
TTITLE3=Lavender Blue
TTITLE4=Ten Years Pass
TTITLE5=Here Lately
TTITLE6=Heartbreaker's Hall Of Fame
TTITLE7=Slow Swinging Westerntunes
TTITLE8=Please Be San Antone
TTITLE9=Mama's Opry
TTITLE10=If I Could
TTITLE11=16th Avenue
EXTD=
EXTT0=
EXTT1=
EXTT2=
EXTT3=
EXTT4=
EXTT5=
EXTT6=
EXTT7=
EXTT8=
EXTT9=
EXTT10=
EXTT11=
PLAYORDER=
